<!-- <?xml version="1.0" encoding="utf-8"?> -->
<!-- Generator: Adobe Illustrator 18.0.0, SVG Export Plug-In . SVG Version: 6.00 Build 0)  -->
<!-- <!DOCTYPE svg PUBLIC "-//W3C//DTD SVG 1.1//EN" "http://www.w3.org/Graphics/SVG/1.1/DTD/svg11.dtd"> -->
<svg version="1.1" id="Layer_1" xmlns="http://www.w3.org/2000/svg" xmlns:xlink="http://www.w3.org/1999/xlink" x="0px" y="0px"
	 viewBox="0 0 299.9 292.5" enable-background="new 0 0 299.9 292.5" xml:space="preserve">
<path fill-rule="evenodd" clip-rule="evenodd" fill="#BBBDC0" d="M149.9,0C67.1,0,0,67.1,0,150c0,66.2,43,122.4,102.5,142.3
	c7.5,1.4,10.2-3.3,10.2-7.2c0-3.6-0.1-13-0.2-25.5c-41.7,9.1-50.5-20.1-50.5-20.1c-6.8-17.3-16.6-21.9-16.6-21.9
	c-13.6-9.3,1-9.1,1-9.1c15,1.1,23,15.5,23,15.5c13.4,22.9,35.1,16.3,43.6,12.5c1.4-9.7,5.2-16.3,9.5-20
	c-33.3-3.8-68.3-16.6-68.3-74.1c0-16.4,5.8-29.8,15.4-40.2c-1.5-3.8-6.7-19,1.5-39.7c0,0,12.6-4,41.2,15.4c12-3.3,24.8-5,37.5-5
	c12.7,0.1,25.6,1.7,37.5,5c28.6-19.4,41.2-15.4,41.2-15.4c8.2,20.6,3,35.9,1.5,39.7c9.6,10.5,15.4,23.9,15.4,40.2
	c0,57.6-35.1,70.3-68.5,74c5.4,4.6,10.2,13.8,10.2,27.8c0,20-0.2,36.2-0.2,41.1c0,4,2.7,8.7,10.3,7.2
	c59.5-19.9,102.5-76,102.5-142.3C299.9,67.1,232.7,0,149.9,0z"/>
</svg>
