<svg id="c-icon--linkedin" viewBox="0 0 12 12"><title>linkedin</title> <path d="M0.157,1.425 C0.112182911,1.07185658 0.236391838,0.718240035 0.492203229,0.470693321 C0.748014619,0.223146606 1.10551825,0.110613616 1.457,0.167 C1.80596981,0.114092258 2.15947833,0.228629249 2.4111144,0.476133688 C2.66275047,0.723638127 2.7831237,1.07520218 2.736,1.425 C2.78000476,1.77252635 2.65783021,2.12049113 2.40622667,2.36422592 C2.15462313,2.6079607 1.80295327,2.71902112 1.457,2.664 C0.590333333,2.664 0.157,2.251 0.157,1.425 Z M8.987,3.763 C9.79829736,3.71054884 10.5867446,4.04416542 11.114,4.663 C11.6348644,5.37253595 11.8926014,6.24120495 11.843,7.12 L11.843,11.834 L9.343,11.834 L9.343,7.378 C9.343,6.22 8.937,5.64066667 8.125,5.64 C7.51577276,5.60690982 6.97313475,6.02226761 6.846,6.619 L6.846,11.833 L4.346,11.833 C4.37266667,6.839 4.37266667,4.06233333 4.346,3.503 L6.33,3.503 L6.489,5.161 L6.529,5.161 C7.02385246,4.27341619 7.97118589,3.73461548 8.987,3.763 Z M2.694,11.833 L0.2,11.833 L0.2,3.5 L2.7,3.5 L2.694,11.833 Z" id="Shape"></path> </svg>